<svg width="33" height="25" viewBox="0 0 33 25" fill="none" xmlns="http://www.w3.org/2000/svg">
<g style="mix-blend-mode:soft-light">
<path d="M15.2012 19.6416V22.0342H2.21289L0.982422 20.3936V2.34668L2.34961 0.364258H13.3555V2.34668H3.375V10.0029H14.0391V11.8486H3.23828V19.6416H15.2012ZM20.2598 12.6006V24.085H17.7305V2.27832L19.3711 0.774414C19.8952 0.706055 20.4193 0.649089 20.9434 0.603516C21.4902 0.557943 22.0257 0.535156 22.5498 0.535156C23.7803 0.535156 24.9766 0.660482 26.1387 0.911133C27.3008 1.139 28.3376 1.51497 29.249 2.03906C30.1605 2.54036 30.8896 3.18978 31.4365 3.9873C32.0062 4.78483 32.291 5.75326 32.291 6.89258C32.291 7.91797 32.1087 8.78385 31.7441 9.49023C31.3796 10.1966 30.8896 10.7891 30.2744 11.2676C29.6592 11.7233 28.9642 12.0765 28.1895 12.3271C27.4147 12.555 26.6172 12.7145 25.7969 12.8057L31.1973 21.4189L29.4199 22.6494L23.4043 12.9424C22.8574 12.9424 22.3219 12.931 21.7979 12.9082C21.2738 12.8854 20.7611 12.7829 20.2598 12.6006ZM20.3965 10.5498C21.2852 10.8005 22.3105 10.9258 23.4727 10.9258C24.2246 10.9258 24.988 10.8688 25.7627 10.7549C26.5374 10.6182 27.2324 10.4017 27.8477 10.1055C28.4857 9.78646 28.9984 9.36491 29.3857 8.84082C29.7731 8.31673 29.9668 7.66732 29.9668 6.89258C29.9668 6.23177 29.7959 5.63932 29.4541 5.11523C29.1123 4.59115 28.6338 4.1582 28.0186 3.81641C27.4261 3.45182 26.7197 3.17839 25.8994 2.99609C25.1019 2.79102 24.236 2.68848 23.3018 2.68848C22.8688 2.68848 22.4359 2.71126 22.0029 2.75684C21.57 2.80241 21.1257 2.87077 20.6699 2.96191C20.556 4.1696 20.4762 5.44564 20.4307 6.79004C20.4079 8.13444 20.3965 9.3877 20.3965 10.5498Z" fill="white"/>
</g>
</svg>
